name rise43.5482peak65.4966fall89.1036.mot
datacolumns 19
datarows 18
range 19.32992500000000 19.35825800000000
endheader
time	ground_force1_vx	ground_force1_vy	ground_force1_vz	ground_force1_px	ground_force1_py	ground_force1_pz	ground_force2_vx	ground_force2_vy	ground_force2_vz	ground_force2_px	ground_force2_py	ground_force2_pz	ground_torque1_x	ground_torque1_y	ground_torque1_z	ground_torque2_x	ground_torque2_y	ground_torque2_z	
19.32992500000000	66.17999000000000	823.61270300000001	49.21977100000000	0.29923600000000	0.00000000000000	0.09681400000000	0.00000000000000	0.00000000000000	0.00000000000000	0.00000000000000	0.00000000000000	0.00000000000000	0.00000000000000	15.71984200000000	0.00000000000000	0.00000000000000	0.00000000000000	0.00000000000000	
19.33159000000000	65.41833800000001	824.20726200000001	49.23490400000000	0.29838100000000	0.00000000000000	0.09689300000000	0.00000000000000	0.00000000000000	0.00000000000000	0.00000000000000	0.00000000000000	0.00000000000000	0.00000000000000	15.76417200000000	0.00000000000000	0.00000000000000	0.00000000000000	0.00000000000000	
19.33326300000000	64.65720800000000	824.65479000000005	49.25006600000000	0.29752600000000	0.00000000000000	0.09697500000000	0.00000000000000	0.00000000000000	0.00000000000000	0.00000000000000	0.00000000000000	0.00000000000000	0.00000000000000	15.80988800000000	0.00000000000000	0.00000000000000	0.00000000000000	0.00000000000000	
19.33493000000000	63.89681100000000	824.95715700000005	49.26478400000000	0.29667200000000	0.00000000000000	0.09705900000000	0.00000000000000	0.00000000000000	0.00000000000000	0.00000000000000	0.00000000000000	0.00000000000000	0.00000000000000	15.85658300000000	0.00000000000000	0.00000000000000	0.00000000000000	0.00000000000000	
19.33659300000000	63.13733000000000	825.11640699999998	49.27855400000000	0.29581500000000	0.00000000000000	0.09714700000000	0.00000000000000	0.00000000000000	0.00000000000000	0.00000000000000	0.00000000000000	0.00000000000000	0.00000000000000	15.90384500000000	0.00000000000000	0.00000000000000	0.00000000000000	0.00000000000000	
19.33825300000000	62.37891600000000	825.13475700000004	49.29085500000000	0.29495700000000	0.00000000000000	0.09723700000000	0.00000000000000	0.00000000000000	0.00000000000000	0.00000000000000	0.00000000000000	0.00000000000000	0.00000000000000	15.95124900000000	0.00000000000000	0.00000000000000	0.00000000000000	0.00000000000000	
19.33992800000000	61.62170100000000	825.01459899999998	49.30114900000000	0.29409400000000	0.00000000000000	0.09733000000000	0.00000000000000	0.00000000000000	0.00000000000000	0.00000000000000	0.00000000000000	0.00000000000000	0.00000000000000	15.99836800000000	0.00000000000000	0.00000000000000	0.00000000000000	0.00000000000000	
19.34158500000000	60.86579300000000	824.75849800000003	49.30888600000000	0.29322500000000	0.00000000000000	0.09742600000000	0.00000000000000	0.00000000000000	0.00000000000000	0.00000000000000	0.00000000000000	0.00000000000000	0.00000000000000	16.04477300000000	0.00000000000000	0.00000000000000	0.00000000000000	0.00000000000000	
19.34325100000000	60.11128500000000	824.36919000000000	49.31351600000000	0.29235000000000	0.00000000000000	0.09752400000000	0.00000000000000	0.00000000000000	0.00000000000000	0.00000000000000	0.00000000000000	0.00000000000000	0.00000000000000	16.09003700000000	0.00000000000000	0.00000000000000	0.00000000000000	0.00000000000000	
19.34493700000000	59.35825400000000	823.84957799999995	49.31448500000000	0.29146700000000	0.00000000000000	0.09762600000000	0.00000000000000	0.00000000000000	0.00000000000000	0.00000000000000	0.00000000000000	0.00000000000000	0.00000000000000	16.13373700000000	0.00000000000000	0.00000000000000	0.00000000000000	0.00000000000000	
19.34659000000000	58.60677100000000	823.20273399999996	49.31124900000000	0.29057600000000	0.00000000000000	0.09773000000000	0.00000000000000	0.00000000000000	0.00000000000000	0.00000000000000	0.00000000000000	0.00000000000000	0.00000000000000	16.17546200000000	0.00000000000000	0.00000000000000	0.00000000000000	0.00000000000000	
19.34825500000000	57.85689600000000	822.43189099999995	49.30327200000000	0.28967400000000	0.00000000000000	0.09783600000000	0.00000000000000	0.00000000000000	0.00000000000000	0.00000000000000	0.00000000000000	0.00000000000000	0.00000000000000	16.21480600000000	0.00000000000000	0.00000000000000	0.00000000000000	0.00000000000000	
19.34992500000000	57.10868900000000	821.54043999999999	49.29003400000000	0.28876100000000	0.00000000000000	0.09794600000000	0.00000000000000	0.00000000000000	0.00000000000000	0.00000000000000	0.00000000000000	0.00000000000000	0.00000000000000	16.25138300000000	0.00000000000000	0.00000000000000	0.00000000000000	0.00000000000000	
19.35158800000000	56.36220600000000	820.53192700000000	49.27103500000000	0.28783700000000	0.00000000000000	0.09805700000000	0.00000000000000	0.00000000000000	0.00000000000000	0.00000000000000	0.00000000000000	0.00000000000000	0.00000000000000	16.28482000000000	0.00000000000000	0.00000000000000	0.00000000000000	0.00000000000000	
19.35325100000000	55.61750600000000	819.41004499999997	49.24580100000000	0.28690000000000	0.00000000000000	0.09817100000000	0.00000000000000	0.00000000000000	0.00000000000000	0.00000000000000	0.00000000000000	0.00000000000000	0.00000000000000	16.31476400000000	0.00000000000000	0.00000000000000	0.00000000000000	0.00000000000000	
19.35493600000000	54.87465200000000	818.17862900000000	49.21388200000000	0.28594900000000	0.00000000000000	0.09828800000000	0.00000000000000	0.00000000000000	0.00000000000000	0.00000000000000	0.00000000000000	0.00000000000000	0.00000000000000	16.34088400000000	0.00000000000000	0.00000000000000	0.00000000000000	0.00000000000000	
19.35658700000000	54.13371400000000	816.84164999999996	49.17486200000000	0.28498500000000	0.00000000000000	0.09840600000000	0.00000000000000	0.00000000000000	0.00000000000000	0.00000000000000	0.00000000000000	0.00000000000000	0.00000000000000	16.36287200000000	0.00000000000000	0.00000000000000	0.00000000000000	0.00000000000000	
19.35825800000000	53.39477100000000	815.40320599999995	49.12836000000000	0.28400500000000	0.00000000000000	0.09852700000000	0.00000000000000	0.00000000000000	0.00000000000000	0.00000000000000	0.00000000000000	0.00000000000000	0.00000000000000	16.38044500000000	0.00000000000000	0.00000000000000	0.00000000000000	0.00000000000000	
